<?xml version="1.0" encoding="utf-8"?>
<!-- Generator: Adobe Illustrator 22.0.1, SVG Export Plug-In . SVG Version: 6.00 Build 0)  -->
<svg version="1.1" id="Capa_1" xmlns="http://www.w3.org/2000/svg" xmlns:xlink="http://www.w3.org/1999/xlink" x="0px" y="0px"
	 viewBox="0 0 550.8 550.8" style="enable-background:new 0 0 550.8 550.8;" xml:space="preserve">
<style type="text/css">
	.st0{fill:#8BAACC;}
	.st1{fill:#FFFFFF;}
</style>
<polygon class="st0" points="89.7,13 358.3,13 466.3,133 466.3,533 85,533 "/>
<g>
	<path class="st1" d="M187.2,286c0-11.6-8-18.5-22.2-18.5c-5.8,0-9.7,0.6-11.8,1.1v37.2c2.4,0.6,5.4,0.7,9.5,0.7
		C177.9,306.5,187.2,298.9,187.2,286z"/>
	<path class="st1" d="M275,267.9c-6.4,0-10.5,0.6-12.9,1.1v82.4c2.4,0.6,6.4,0.6,9.9,0.6c25.8,0.2,42.6-14,42.6-44.1
		C314.9,281.7,299.5,267.9,275,267.9z"/>
	<path class="st1" d="M488.4,197h-13.2v-63.8c0-0.4-0.1-0.8-0.1-1.2c0-2.5-0.8-5-2.6-7L366.3,3.7c0,0-0.1,0-0.1-0.1
		c-0.6-0.7-1.4-1.3-2.2-1.8c-0.2-0.2-0.5-0.3-0.7-0.4c-0.7-0.4-1.4-0.7-2.1-0.9c-0.2-0.1-0.4-0.1-0.6-0.2C359.9,0.1,359,0,358.2,0
		h-261C85.3,0,75.6,9.7,75.6,21.6V197H62.4c-17,0-30.9,13.8-30.9,30.9v160.5c0,17,13.8,30.9,30.9,30.9h13.2v109.9
		c0,11.9,9.7,21.6,21.6,21.6h356.4c11.9,0,21.6-9.7,21.6-21.6V419.3h13.2c17,0,30.9-13.8,30.9-30.9V227.9
		C519.3,210.8,505.5,197,488.4,197z M97.2,21.6h250.2v110.5c0,6,4.8,10.8,10.8,10.8h95.4V197H97.2V21.6z M344.9,306.9
		c0,24.1-8.8,40.7-20.9,51c-13.3,11-33.4,16.3-58.1,16.3c-14.8,0-25.2-0.9-32.3-1.9V248.6c10.5-1.7,24.1-2.6,38.5-2.6
		c23.9,0,39.4,4.3,51.6,13.5C336.7,269.2,344.9,284.7,344.9,306.9z M125,372.9V248.6c8.8-1.5,21.1-2.6,38.5-2.6
		c17.6,0,30.1,3.4,38.5,10.1c8,6.3,13.4,16.8,13.4,29.2c0,12.3-4.1,22.8-11.6,29.9c-9.7,9.2-24.1,13.3-40.9,13.3
		c-3.7,0-7.1-0.2-9.7-0.6v45H125L125,372.9z M453.6,523.4H97.2V419.3h356.4L453.6,523.4L453.6,523.4z M440.6,270.3h-48.4v28.8h45.2
		v23.2h-45.2v50.6h-28.6v-126h77V270.3z"/>
</g>
</svg>
